<?xml version="1.0" encoding="utf-8"?>
<!-- Generator: Adobe Illustrator 18.0.0, SVG Export Plug-In . SVG Version: 6.00 Build 0)  -->
<!DOCTYPE svg PUBLIC "-//W3C//DTD SVG 1.1//EN" "http://www.w3.org/Graphics/SVG/1.1/DTD/svg11.dtd">
<svg version="1.1" id="Camada_1" xmlns="http://www.w3.org/2000/svg" xmlns:xlink="http://www.w3.org/1999/xlink" x="0px" y="0px"
	 viewBox="0 0 154 53.708237" style="enable-background:new 0 0 154 53.708237;" xml:space="preserve">
<g>
	<polyline style="fill:#FFFFFF;" points="0,51.429466 54.261368,51.429466 0.412279,51.863197 53.642464,51.863197 
		1.341134,52.40609 52.301323,52.40609 2.888895,53.057163 50.547909,53.057163 4.229055,53.708237 48.690212,53.708237 	"/>
	<path style="fill:#FFFFFF;" d="M7.999929,22.751299c0,0.130608,0.121832,1.084805,0.244639,1.614046
		c0.121833,0.529242,1.289476,3.497099,1.377192,3.987345c0.087724,0.489294,0.018523,0.593578,0.074078,1.438614
		c0.352828,0.162762,1.16667,0.787512,1.600393,0.787512c0.433724,0,1.464915-1.017525,1.912285-1.139357
		c0-1.248549-0.311892-1.356758-0.202729-2.007832c0.128658-0.776802,0.515595-1.560417,0.759261-2.170561
		c0.244639-0.611097,0.063354-0.82847,0.095516-1.017553c0,0,0.280704,0.360619,0.189084,0.926922
		c-0.110135,0.690039-0.650099,1.734898-0.72904,2.192007c-0.079924,0.458094-0.052632,0.984419,0.118903,1.099409
		c1.437632-0.16276,2.505862-0.614992,3.445434-1.153008c0.940544-0.537064,1.7232-0.94932,2.529249-1.294353
		c-0.154976-0.577011-1.350883-2.414259-1.932756-3.116968c-0.582848-0.70274-1.315792-1.438614-2.246596-2.002953
		c-0.929831-0.56529-2.568236-0.88302-3.762197-0.761187c-1.193959,0.121832-2.346983,0.474659-2.346983,0.474659
		s-0.753416-0.638401-1.325541-0.441525c0.167639,0.447355,0.34893,0.902533,0.34893,0.902533l-0.745623,0.447353
		C7.403429,21.516403,7.999929,22.620722,7.999929,22.751299"/>
	<path style="fill:#FFFFFF;" d="M41.531418,34.189865c-0.015594,0.990246-0.363552,1.893761-0.931778,2.593555
		c-0.006821,0.007824-0.013645,0.015617-0.019489,0.023411c0.193954-0.656933,0.45224-1.75441,0.45224-1.884987v-1.262203
		c0-0.606247-0.571152-2.073118-0.769985-2.568243c0.001957,0.001965,0.006824,0.006842,0.009747,0.009756
		c0.012672,0.01169,0.025345,0.025343,0.038013,0.038013c0.315788,0.312851,0.580902,0.681293,0.78363,1.089684
		c0.014618,0.03019,0.030212,0.061394,0.044834,0.092594c0.212479,0.457111,0.346008,0.96199,0.383038,1.495129
		c0.006828,0.100388,0.011696,0.201756,0.011696,0.304077C41.533363,34.144058,41.531418,34.166454,41.531418,34.189865
		 M21.126871,27.481272c-0.042883-0.019512-0.096491-0.064337-0.153994-0.154016
		c-0.134504-0.208567-0.289478-0.51071-0.289478-0.524363c0-0.332363,0.681293-0.30018,0.824564-0.418116
		c0.153019-0.120882,0.211504-0.288521,0.434698-0.392805l0.013645,0.034117c0.002922,0.064339,0.003904,0.140364,0.004879,0.222221
		c-0.037041,0.210529-0.056538,0.428852-0.056538,0.653988c0,0.29435,0.043865,0.737837,0.094543,0.844084
		c-0.004871-0.002945-0.33333,0.129625-0.370369,0.162762C21.453382,27.745401,21.328627,27.571901,21.126871,27.481272
		 M21.202898,24.93837l2.650101-3.054594l1.717354,1.469786l-0.068226,0.218325
		c-0.055553,0.146193-0.122807,0.292416-0.20273,0.437628c-0.082844,0.151072-0.179335,0.300209-0.287523,0.445421
		c-0.115013,0.153034-0.242691,0.302143-0.384987,0.444439c-0.021446,0.021446-0.042892,0.04191-0.064331,0.062374
		c-0.399614,0.383047-0.846983,0.662792-1.293379,0.827488c-0.301168,0.111124-0.600389,0.169601-0.884016,0.17448
		L21.202898,24.93837z M22.4914,19.880854V19.07383c-0.000975-0.136467,0.028265-0.207615,0.078949-0.259251
		c0.095516-0.046787,0.192007-0.110144,0.281672-0.189085c0.029245-0.025343,0.05751-0.052647,0.083826-0.080904
		c0.183233,0.039946,0.376213,0.020464,0.540937-0.056545c0.082846-0.038965,0.207602-0.091612,0.266079-0.152052
		c0.106239-0.084772,0.126711-0.194916,0.153027-0.329418c0.085768-0.004879,0.171535-0.010738,0.255356-0.019484v0.513626
		c0,0.003897,0,0.007792-0.000975,0.011688c-0.005846,0.020494-0.010715,0.042892-0.016567,0.064337
		c-0.024368,0.098455-0.039963,0.201757-0.039963,0.308002c0,0.263149,0.081871,0.505833,0.221247,0.707588
		c0.21833,0.316778,0.579926,0.526325,0.991236,0.538015c0.023388,0.123796,0.011698,0.323589-0.005852,0.461037
		c-0.016567,0.136438-0.15789,0.515589-0.215401,0.718327c-0.106232,0.377188-0.219297,0.756338-0.213446,1.143251
		l-0.390841-0.334295c0.08382-0.326504,0.177389-0.658867,0.268034-0.993193c0.060427-0.224154,0.119877-0.448336,0.173485-0.670557
		c-0.479532-0.111094-0.863546-0.399614-1.059456-0.758272c-0.240744,0.070168-0.58577,0.189085-0.678364,0.184208H22.4914z
		 M21.505041,18.841854c-0.106239-0.105265-0.082846-0.374273,0.11891-0.820675
		c0.063349-0.089649,0.174465-0.206604,0.246588-0.26996c0.155943,0.077961,0.219297,0.084772,0.271931,0.111095
		c0.04678,0.080904,0.092594,0.149137,0.137426,0.207615c0.034117,0.044825,0.128658,0.02338,0.16082,0.056515
		c0.076025,0.219305,0.212479,0.269989,0.263155,0.327484c-0.035084,0.082869-0.390833,0.285576-0.520466,0.338223
		C22.052797,18.843817,21.612253,18.947119,21.505041,18.841854 M20.996264,17.002674
		c-0.492201-0.301163-0.891815-0.677399-1.167643-1.092599c0.077002-0.026323,0.16082-0.065318,0.246588-0.115973
		c0.152054-0.087747,0.311892-0.211513,0.463945-0.363565c0.134495-0.134503,0.246588-0.275819,0.331381-0.411304
		c0.23489,0.61892,0.674467,1.239774,1.280708,1.770947c-0.02729,0.053629-0.049709,0.113058-0.066277,0.175461
		c-0.005854,0.018501-0.00975,0.038013-0.011698,0.056515c-0.02924,0.141346-0.032162,0.297266-0.005852,0.459074
		C21.677557,17.360378,21.316931,17.19857,20.996264,17.002674 M19.675602,15.652758
		c-0.002924-0.001934-0.007801-0.001934-0.010723-0.004878c-0.012672-0.012671-0.018517-0.032154-0.020472-0.054582
		c-0.010715-0.126711,0.150105-0.392774,0.406433-0.650091c0.125736-0.12573,0.252441-0.227098,0.364525-0.298246
		c0.139381-0.088697,0.254389-0.127692,0.314821-0.101369c0.007793,0.003897,0.017542,0.005859,0.023386,0.011689
		c0.006826,0.006842,0.009748,0.01755,0.013645,0.027306c0.009748,0.026323,0.008776,0.062374-0.002922,0.106247
		c-0.038988,0.141315-0.185181,0.358657-0.395712,0.57115C20.077158,15.55237,19.77404,15.721972,19.675602,15.652758
		 M22.447542,16.834053c0.005844-0.007793,0.671537,0.057495,0.671537,0.057495s0.326509,0.232958,0.367447,0.43763
		c0.018522,0.094557-0.000975,0.35479,0,0.426889c0,0-1.044838,0.020494-1.045811,0.019512
		C22.227262,17.323317,22.34325,16.976349,22.447542,16.834053 M23.191202,18.307735
		c-0.55068,0.038013-0.522415-0.285576-0.522415-0.285576l0.950294-0.018501
		C23.619081,18.003658,23.742863,18.269722,23.191202,18.307735 M24.562555,17.153746
		c0.076994-0.090662,0.186163-0.164724,0.298246-0.234892c0.117937,0.113058,0.275827,0.268026,0.42495,0.387896
		c0.004879,0.003927,0.00975,0.007824,0.01462,0.011719c0.062382,0.048721,0.122807,0.091614,0.178362,0.121834
		c0.109169-0.115021,0.19104-0.269009,0.223202-0.393785c0.009748-0.037031,0.015593-0.0721,0.015593-0.10232
		c0-0.143278-0.055553-0.206635-0.140348-0.252441c-0.086748-0.045805-0.204678-0.074093-0.325537-0.15107
		c-0.00293-0.065319-0.047762-0.151072-0.107212-0.22127c0.048727-0.143248,0.185181-0.336259,0.185181-0.336259
		s0.147175-0.090631,0.282652-0.170554c0.136452-0.078941,0.263163-0.152053,0.317743-0.203689
		c0.002924,0.188103-0.015593,0.301161-0.013645,0.434684c0,0.015585-0.000973,0.032152-0.000973,0.046787
		c-0.003904,0.077959-0.006826,0.155949-0.008776,0.23489c-0.004869,0.142298-0.008774,0.285576-0.010723,0.430819h0.24757
		c0.000975-0.048752,0.002922-0.096521,0.004871-0.145243c0.002922-0.077959,0.004869-0.156931,0.008774-0.23391
		c0.002922-0.083818,0.007793-0.165705,0.012671-0.247561c0.017542-0.322638,0.040936-0.634507,0.072123-0.929838
		c0.033136-0.007793,0.066278-0.015586,0.100388-0.022428c0.061407-0.011689,0.121834-0.019483,0.183241-0.026294
		c0.010721,0,0.023386,0.000952,0.034109,0.000952c0.046787,0.000981,0.093567,0.001964,0.141329,0.003897
		c0.011698,0.036079-0.097471,0.67936-0.122807,0.7934c-0.013645,0.063356-0.111116,0.739771-0.115988,0.776802
		c-0.000975,0.005831-0.001947,0.010708-0.002922,0.016569c0,0.004877-0.000975,0.009726-0.000975,0.014605h0.235865
		l0.003897,0.00684c0.047762-0.292416,0.102343-0.584803,0.167646-0.85967c0.061399-0.256336,0.129627-0.503899,0.203705-0.740723
		c0.206627,0.031172,0.461014,0.090631,0.643272,0.173469c0.006826,0.003897,0.013645,0.006842,0.021446,0.010737
		c0.142303,0.066271,0.2768,0.147175,0.397659,0.241703c0.019497,0.015615,0.039961,0.03022,0.059458,0.045806
		c0.08382,0.089679,0.162769,0.189085,0.234892,0.287539c0.111111,0.152052,0.203705,0.299227,0.269007,0.394737
		c0.039963,0.06044,0.039963,0.141315,0.086742,0.227097c0.013645,0.047741,0.026318,0.094528,0.036066,0.14426
		c0.009748,0.051636,0.015593,0.104284,0.020472,0.15592v0.009756c-0.013645,0.003897-0.026318,0.008774-0.039963,0.013653
		c-0.073103,0.021446-0.147175,0.039948-0.224174,0.056515c-0.18811,0.038994-0.386944,0.06044-0.592596,0.064337
		c-0.018517,0-0.036058,0.001963-0.054581,0.001963c-0.095516,0-0.189085-0.005859-0.281679-0.014635
		c-0.001949,0-0.002922,0-0.003897,0c-0.000975,0.005861-0.002922,0.010738-0.004871,0.016569
		c-0.063354,0.272903-0.213451,0.55946-0.444447,0.808985c-0.180309,0.195896-0.385969,0.343071-0.595518,0.439562
		c-0.050684,0.02338-0.102343,0.042892-0.153021,0.06044c-0.031193,0.009727-0.061407,0.020466-0.092592,0.028257
		c0,0.0536,0.001947,0.105267,0.002922,0.156902c0.001947,0.074093,0.001947,0.148155,0.004869,0.220285l-0.033134,0.003897
		l-0.153019,0.01755c-0.003904-0.066271-0.007801-0.133522-0.011698-0.200773
		c-0.000975-0.027306-0.001947-0.055563-0.003897-0.082869c-0.000982-0.026295-0.000982-0.052618-0.001955-0.078941
		c-0.000975-0.016567-0.001949-0.033134-0.001949-0.049704c-0.002922-0.080904-0.005844-0.163742-0.007792-0.245598
		c-0.000975-0.04777-0.002932-0.094557-0.004879-0.143278c-0.001947-0.082869-0.002922-0.165707-0.003897-0.250507
		c-0.000975-0.005829-0.000975-0.012671-0.000975-0.019482c0-0.008776,0-0.016569,0.000975-0.026325
		c0,0-0.000975,0-0.000975-0.00098c0-0.02924-0.000973-0.058477-0.000973-0.088669c0-0.027306,0-0.054581,0-0.082867h-0.236847
		c0.000975,0.038994,0.000975,0.077007,0.000975,0.116003c0.00098,0.034117,0.001955,0.068203,0.00293,0.103302
		c-0.01755,0.019482-0.035091,0.040928-0.053608,0.06044c-0.000973,0.001934-0.001947,0.003897-0.003904,0.005829
		c-0.087715,0.100388-0.176413,0.202738-0.264128,0.305088c-0.024368,0.02924-0.049711,0.058477-0.075054,0.088697
		c-0.004869,0.005831-0.009741,0.01169-0.014618,0.017519c-0.009741,0.011721-0.020464,0.022429-0.02924,0.034117
		c-0.064329,0.078941-0.125729,0.158865-0.181284,0.238789c-0.081871-0.049704-0.150097-0.103302-0.207607-0.156902
		c-0.060427-0.056543-0.109161-0.114038-0.150097-0.171535c-0.021439-0.032183-0.042885-0.063354-0.060427-0.094557
		c-0.025341-0.043842-0.046787-0.087715-0.066277-0.131588c-0.013647-0.030191-0.027292-0.061394-0.038988-0.090631
		c-0.006819-0.01755-0.012671-0.033134-0.019489-0.049704c-0.024368-0.065317-0.048737-0.126711-0.075054-0.183254
		c-0.023394-0.049702-0.047754-0.096491-0.079922-0.135456c-0.031187-0.038013-0.067253-0.071148-0.113058-0.096491
		C24.487503,17.257048,24.520647,17.203447,24.562555,17.153746 M27.818897,25.764875
		c0.046787-0.051666,0.092594-0.103302,0.138401-0.154968c0.029245-0.034117,0.059458-0.068233,0.087723-0.10235
		c0.005846-0.006811,0.011698-0.013622,0.017542-0.020464l0.874275,0.747564l-0.939579,1.078974l-1.746593,2.004858
		l-0.104284-0.089649l-1.590651-1.380136c0.498053-0.145212,1.000004-0.36062,1.487333-0.647179
		c0.544834-0.31871,1.072128-0.723202,1.55751-1.209553c0.011696-0.011688,0.022419-0.023378,0.034117-0.035097
		c0.035084-0.035069,0.069201-0.071148,0.104284-0.108181C27.765291,25.821419,27.792582,25.793133,27.818897,25.764875
		 M29.729235,26.885731l0.011696,0.009756l-0.794344,0.659847l-1.950306,1.617943L26.847158,28.9949l1.991241-2.295309
		l0.056528-0.061422c0,0,0.011698-0.006811,0.009741-0.014605l0.216375-0.249525L29.729235,26.885731z M29.80526,27.98517
		l-0.028263,0.010708l-1.749517,0.686171l-0.135477,0.052618l0.270956-0.221237l1.332359-1.089684l0.073105-0.05946
		L29.80526,27.98517z M41.969044,40.064129c0.065296-0.301159,0.141323-0.625729,0.207603-0.869396l0.541908-1.932755
		l0.761211-2.715389l-0.000973-0.00098c0.097462-0.350864,0.15107-0.720261,0.15107-1.103306
		c0-2.205662-1.73587-3.993206-3.877201-3.993206c-0.189087,0-0.374275,0.014633-0.555557,0.040928
		c-0.127686-0.012672-0.254391-0.02924-0.373299-0.056515c-0.042885-0.007793-0.109161-0.028257-0.176414-0.052647
		c-0.045807-0.016569-0.092594-0.034088-0.13158-0.049704c-0.077969-0.033134-0.165691-0.07213-0.257313-0.113058
		c-0.140347-0.064337-0.290443-0.132542-0.432751-0.193962c-0.671535-0.309937-1.408386-0.532156-2.18811-0.649111
		c-0.415207-0.062374-0.843079-0.095509-1.279736-0.095509c-0.528263,0-1.042885,0.048721-1.538986,0.139351
		c-0.568226,0.103333-1.111113,0.261215-1.619888,0.469812c-0.298246,0.092594-0.547764,0.166656-0.611113,0.166656
		c-0.338207,0-0.364525-0.364515-0.781681-0.364515c-0.129633,0-0.392788,0.138399-0.56628,0.208567
		c0,0.001963,0.057505,0.088697,0.057505,0.088697c0.725151,1.193966,1.31287,2.594538,1.695917,4.136454
		c0.005844,0.024391,0.012671,0.049732,0.018515,0.075047c0.017542,0.072128,0.035091,0.145241,0.051659,0.218353
		c0,0-5.536079,2.291412-5.550699,2.302151c-0.038013-0.095539-1.003901-2.496117-1.003901-2.496117
		s-1.01852,0.731949-1.548742,1.054585c0.025343,0.295303,0.01755,0.758274-0.01169,1.303101
		c-0.090645,1.703724-0.385969,4.218338-0.477589,5.001984c-0.080896,0.097473-0.139374,0.192001-0.269009,0.192001
		c-0.1306,0-1.561405-0.157887-1.954193-0.698845l0.240742-3.732941l0.176414-2.734901l1.897665-4.646214l0.293377-0.721239
		l0.559452,1.376209l2.297281,5.655973l4.949327-2.014645c-0.003895-0.014603-0.006819-0.028255-0.009741-0.041908
		c-0.001955-0.005829-0.00293-0.011688-0.003904-0.017548c-0.004869-0.020466-0.010721-0.039948-0.015593-0.059429
		c-0.400581-1.620888-1.028269-3.088711-1.804098-4.323606c-0.024366-0.06044-0.038012-0.095509-0.038012-0.099436
		c0-0.11401-0.005846-0.094526,0.025341-0.120852l1.292398-0.506813l-0.339182-0.88986l0.327492-0.268057l-0.088697-0.076977
		l-0.32164-0.274868l-0.500002-0.428854l-0.608189-0.521448l-0.265104-0.227097l-0.101368-0.086735l0.119884-0.166658
		c0,0,0.196884-0.271921,0.286549-0.410353c0.208582-0.320642,0.386944-0.647177,0.534119-0.977575
		c0.093569-0.210531,0.174465-0.422014,0.242691-0.633526c0.04191-0.113058,0.070175-0.200773,0.072123-0.238787
		c0.077002-0.275848,0.132555-0.550686,0.164717-0.821657c0.019497-0.161779,0.031187-0.321625,0.034117-0.48049
		c0-0.008774,0.000975-0.01755,0.000975-0.026323c0-0.01169-0.000975-0.02338-0.000975-0.035099
		c-0.006826-0.316748-0.096491-0.612078-0.249517-0.865499c-0.039961-0.082838-0.10136-0.165676-0.176414-0.2456
		c-0.009741-0.01169-0.021437-0.022427-0.03216-0.033134c-0.051659-0.057526-0.108189-0.111126-0.167646-0.160828
		c-0.114033-0.096491-0.239761-0.180311-0.376213-0.245628c-0.106239-0.059429-0.203705-0.104284-0.277782-0.127663
		c-0.000975,0-0.002924-0.000982-0.004871-0.001965c-0.005852-0.076025-0.007801-0.161777-0.013645-0.261213
		c-0.054581,0.005859-0.109161,0.013653-0.161795,0.023409c-0.153019,0.025341-0.298246,0.063354-0.434698,0.112076
		c-0.010723,0.003897-0.021446,0.007793-0.032167,0.01169c0.044838-0.291405,0.374271-0.350864,0.490259-0.506813
		c0.025335-0.034117,0.040936-0.07115,0.040936-0.117937c0-0.044825-0.013645-0.077959-0.029245-0.106247
		c-0.031187-0.054581-0.075045-0.095509-0.075045-0.180309c0-0.036051,0.008774-0.065289,0.021439-0.089649
		c0.014626-0.03022,0.035089-0.052649,0.056536-0.07115c0.002922-0.001963,0.005844-0.003897,0.008768-0.005859
		c0.022419-0.01755,0.043865-0.03022,0.05751-0.038994c0.026308-0.017519,0.050676-0.035069,0.075045-0.0536
		c0.032162-0.03022,0.062382-0.062374,0.092594-0.094526c0.285576-0.302143,0.483435-0.668623,0.562376-1.062408
		c0.005852-0.032154,0.011696-0.064306,0.016575-0.096491c0.005844-0.04191,0.011696-0.08477,0.01462-0.127663
		c0.011696-0.133522,0.008766-0.269989-0.007801-0.405474c-0.004871-0.042862-0.011698-0.084772-0.019489-0.127663
		c-0.085775-0.452263-0.322615-0.840158-0.654003-1.133527c-0.090639-0.079923-0.189085-0.153034-0.292395-0.218324
		c-0.008776-0.005859-0.016567-0.011719-0.025343-0.016597c-0.106239-0.070167-0.257311-0.146194-0.383039-0.191999
		c-0.025343-0.008775-0.049709-0.01755-0.073105-0.023379c-0.015593-0.004878-0.031187-0.008775-0.044832-0.011689
		c-0.121832-0.039977-0.248535-0.070197-0.378168-0.090661c-0.114033-0.01755-0.230021-0.028257-0.34893-0.03022
		c-0.074072-0.000952-0.149124,0.000981-0.225143,0.005859c-0.031195,0.001933-0.06238,0.005859-0.093567,0.008775
		c-0.024368,0.002914-0.048737,0.003897-0.073105,0.006811c-0.057503-0.001933-0.117929-0.002914-0.182259-0.003897
		c-0.071148-0.001933-0.145226-0.003896-0.226124-0.004878c-0.019489,0.028287-0.037039,0.057526-0.054581,0.085783
		c-0.005844,0.009756-0.012671,0.020464-0.018517,0.03022c-0.064329,0.111095-0.112083,0.21636-0.150097,0.283612
		c-0.004877,0.008775-0.009748,0.018531-0.014618,0.025342c-0.016577,0.025342-0.038013,0.049703-0.062382,0.07213
		c-0.197859,0.188103-0.523396,0.244647-0.599415,0.411304c-0.076027,0.166658-0.347958,0.74465-0.347958,0.74465
		s-0.589674,0.682245-0.589674,0.714428c0,0.126711,0.006826,0.187122-0.080889,0.280697
		c-0.143278-0.044825-0.340164-0.106247-0.347958-0.122814c-0.014618-0.047739-0.010721-0.232927-0.032167-0.281679
		c-0.010715-0.024361-0.421053-0.578943-0.639378-0.560411c-0.052631,0.004848-0.781679-0.058477-0.783628-0.057526
		c-0.728065-0.622787-1.121836-1.338198-1.27096-2.096499c-0.000975-0.006811-0.000975-0.013622-0.001947-0.019483
		c-0.002924-0.015586-0.005846-0.029239-0.010723-0.042892c-0.010715-0.034116-0.028265-0.063354-0.052626-0.087715
		c-0.065304-0.065289-0.171543-0.079924-0.300201-0.053599c-0.094543,0.019483-0.201748,0.061392-0.314814,0.124747
		c-0.159847,0.088697-0.330408,0.218324-0.492203,0.380133c-0.044832,0.045806-0.087723,0.092594-0.127684,0.139352
		c-0.099415,0.115022-0.181286,0.230994-0.24464,0.343101c-0.1306,0.232928-0.176414,0.44444-0.113058,0.572132
		c0.004869,0.007793,0.009748,0.016568,0.01462,0.024361c0.401562,0.727099,1.188114,1.377192,2.201763,1.77193
		c0-0.002916,0.07407,0.038012,0.071148,0.040928c-0.19591,0.201756-0.327484,0.430817-0.383039,0.644262h-0.962965v2.826513
		c0,0.003897-0.000982,0.006842-0.000982,0.009756s0.000982,0.006811,0.000982,0.009756
		c0,0.04191,0.004871,0.081856,0.008768,0.122784c0.004877,0.042892,0.011696,0.085783,0.020472,0.128675
		c0.004869,0.026293,0.008766,0.053598,0.015593,0.078941c0.034109,0.127663,0.085768,0.24658,0.153019,0.354759
		c0.01462,0.024391,0.028265,0.04777,0.044832,0.070198c0.201756,0.286526,0.514622,0.488281,0.876225,0.546789
		c0.064329,0.009726,0.129633,0.016567,0.196884,0.017519c0.004871,0,0.008768,0.000982,0.013645,0.000982
		c0.004871,0,0.008768-0.000982,0.013645-0.000982h1.307018c0.000973,0,0.002922,0,0.003904,0.000982l-2.170578,2.509766
		c0,0,0.646202,0.543846,0.868423,0.759254c-0.010715,0.021444-0.247562,0.346016-0.334305,0.398632
		c-0.150097,0.090662-1.067255,0.171535-0.996107,0.619902c0.005852,0.033136,0.013645,0.089649,0.035091,0.154968
		c0.05945,0.185188,0.286549,0.482452,0.382065,0.615974c0.150097,0.201757,0.464911,0.220287,0.569202,0.548723
		c-0.1462,0.091642-0.312866,0.313864-0.345034,0.452263c-0.340157-0.40839-1.067249-1.37038-1.386942-2.029247
		c-1.114035,0.286558-3.799234,1.827492-4.507811,2.05459c-0.592596,0.190065-1.532167,0.303123-1.532167,0.303123
		c0.051659,0.172518,0.151072,0.396671,0.142297,0.529242c-0.00487,0.066271-0.219297,0.130608-0.463937,0.283611
		c-0.099413,0.062374-0.247562,0.176414-0.352827,0.301161c0.099413,0.708599-0.109161,1.345039-0.260233,1.865505
		c-0.081871,0.198839-0.154976,0.406458-0.214427,0.624781c-0.017542,0.066269-0.035091,0.133522-0.050684,0.201756
		c-0.03704,0.159843-0.067252,0.323589-0.092594,0.490246c-0.030213,0.206635-0.050677,0.418114-0.060426,0.634506
		c-0.002923,0.057495-0.00487,0.11404-0.005853,0.172516c-0.000974,0.041908-0.000974,0.085754-0.000974,0.128643
		c0,0.036079,0,0.072132,0,0.108212c0.000974,0.052616,0.004878,0.103302,0.006826,0.154968
		c0.010723,0.269958,0.037039,0.533138,0.078949,0.78751c0.010722,0.06044,0.022412,0.118919,0.034109,0.177395
		c0.016567,0.081856,0.034117,0.162762,0.052632,0.242683c0.071149,0.297264,0.163743,0.579926,0.273878,0.84602
		c0.012671,0.029236,0.025343,0.059456,0.038013,0.088696c0.006826,0.016567,0.013645,0.034119,0.021446,0.050686
		c0.003896,0.008774,0.007792,0.018501,0.011697,0.027275c0.026316-0.008774,0.051651-0.018501,0.077967-0.027275
		c0.171543-0.05946,0.333338-0.136467,0.485383-0.229061c0.101369-0.061394,0.197859-0.130608,0.288505-0.20467
		c0.097466-0.080906,0.189085-0.167641,0.272904-0.261215c-0.16082,0.35479-0.402537,0.664726-0.699809,0.90741
		c-0.051659,0.042892-0.105266,0.081886-0.159846,0.1199c-0.038013,0.019482-0.078949,0.037029-0.124755,0.051636
		c-0.005845,0.001965-0.739771,0.240749-0.884991,0.272903c-0.430801,0.095539-1.536071,0.250507-2.344061,0.541912
		c-0.122807,0.043873-0.358679-0.256336-1.049714-0.192001c-0.690061,0.065292-1.230999,0.75732-1.214431,1.234898
		c0.016575,0.476624,0.214427,0.595509,0.27973,0.868416c0.084794,0.351875,0.615983,3.361614,0.675441,3.892815
		c0.038013,0.338196,0.047755,0.813835,0.047755,0.817734c0,0.048721-0.129626,0.61404-0.140348,0.808002
		c-0.001948,0.033134-0.003897,0.066273-0.003897,0.100388c0,0.088699,0.006819,0.175434,0.019489,0.260235
		c0.05946,0.394737,0.250492,0.725136,0.509751,0.90839c0.005845,0.017521,0.010723,0.036049,0.015594,0.054581
		c0.041909,0.145214,0.087716,0.291405,0.141322,0.43763c0.293376,0.803097,0.72223,1.482456,1.204682,1.973682l0.012671-0.026321
		l1.063359-2.093586l0.012671-0.025341c-0.203704-0.40155-0.495131-0.806042-0.862578-1.183228
		c-0.042884-0.046791-0.08869-0.092594-0.136452-0.136467c-0.000975-0.000954-0.000975-0.000954-0.001948-0.000954
		c-0.105266-0.101368-0.216375-0.200806-0.333337-0.296314c0.001947-0.032154,0.004878-0.065289,0.004878-0.097469
		c0-0.417137-0.169595-0.793373-0.442499-1.066277c-0.04191-0.041908-0.086741-0.079922-0.13353-0.115974
		c0-0.085781-0.155942-3.242695-0.035084-4.409386c0.231969-0.027275,0.88012-0.209549,1.207604-0.459045
		c0.10331-0.078968,3.488311,0.250477,3.58773,0.261215c0.098439,0.009727,0.384989-0.131588,0.581874-0.124775
		c0.196877,0.00779,0.510717,0.046787,0.630602,0.046787c0.234899,0,0.451273-0.079926,0.624757-0.211514
		c0.188111-0.141315,0.325538-0.345005,0.383048-0.58186c0.012671-0.052647,0.021439-0.107227,0.026316-0.162758
		c0.001949-0.027306,0.003897-0.054581,0.003897-0.08287c0-0.011688-0.000975-0.023376-0.001947-0.035069
		c-0.000975-0.037029-0.003904-0.073109-0.008776-0.109161c-0.005844-0.038994-0.013645-0.077007-0.022419-0.11404
		c-0.024361-0.094555-0.061399-0.183254-0.110136-0.26609c0.18811-0.058479,0.368427-0.134506,0.540937-0.222221
		c0.165691-0.084801,0.323589-0.182274,0.472712-0.291435c0.368422-0.269005,0.682268-0.606216,0.922029-0.996075
		c0.081871-0.133553,0.156923-0.272907,0.22028-0.418148c-0.20566,0.887928-0.749521,1.646198-1.48831,2.132549
		c0.01169,0.072128,0.021439,0.145241,0.023386,0.220287c0.004879,0.143276-0.008766,0.281677-0.037031,0.415199
		c-0.062382,0.29435-0.198833,0.562378-0.391815,0.781681c-0.222227,0.252441-0.51755,0.440544-0.854777,0.52924
		c0.269001,1.022434,0.861596,2.774879,0.861596,2.901588c0,0.37719,0.937624,2.272884,0.937624,2.292397
		c0,0.796284,0.229046,1.587723,0.324562,2.262177c0.024368,0.174477,0.039961,0.341137,0.039961,0.498066
		c0,0.130608,0.07213,0.938583,0.116962,2.24073c0,0.111126,0.038988,0.129654,0.038988,0.259281
		c0,0.104282-0.04191,0.207584-0.100395,0.302143c-0.003897,0.007793-0.009741,0.015587-0.01462,0.02338
		c-0.044832,0.058475-0.090637,0.118916-0.134502,0.18129c-0.058477,0.081886-0.116955,0.165707-0.17251,0.251457
		c-0.127686,0.198841-0.246595,0.40741-0.354782,0.626713c-0.052626,0.107231-0.101362,0.215408-0.147169,0.323589
		c-0.033142,0.065289-0.054581,0.116955-0.061407,0.148155c-0.193954,0.49025-0.31871,0.98439-0.377195,1.464909h2.499037
		c-0.028265-0.147175-0.046787-0.298244-0.052633-0.453213c-0.021444-0.542892,0.097466-1.129631,0.373299-1.689091
		c0.155943-0.314816,0.188105-0.483437,0.406435-0.725136c-0.036066-0.225166-0.064329-0.639385-0.199808-1.110149
		c-0.136452-0.471745-0.569202-1.215412-0.572124-1.223206c0,0-0.157898-3.09454-0.157898-3.225147
		s0.212479-1.246613,0.296299-1.816784c0.018515-0.049702,0.124754-1.011692,0.489279-1.72514
		c0.059452-0.116001-0.263163-0.428852-0.365498-0.618919l0.061399-0.065289c0.01462,0.001934,0.029245,0.003895,0.043865,0.004879
		c0.129625,0.12085,2.542894,0.866451,2.542894,0.866451s0.528267-0.704674,0.74366-0.84016
		c0.995132-0.072128,2.062389-0.208565,3.165703-0.415199c1.63451-0.308002,3.140362-0.729034,4.412294-1.208572
		c0.245615-0.092594,0.482462-0.187149,0.709558-0.283642c0.012672,0.010738,0.016567,0.025345,0.023386,0.040958
		c0.000975,0.043842,0.000975,0.087715,0.002932,0.130577c0.005844,0.17252,0.01754,0.341137,0.036057,0.506844
		c0.074078,0.694916,0.249517,1.332367,0.498055,1.867439c0.122807,0.263176,0.26511,0.500984,0.420078,0.709549
		c0.010723,0.022427,0.021446,0.042892,0.028265,0.061424c-0.100388,0.206635-0.182259,0.453213-0.238794,0.724155
		c-0.031187,0.153034-0.055555,0.312878-0.070175,0.479538c-0.016567,0.207615-0.017542,0.40839-0.003897,0.599438
		c-1.705658,2.107204-2.610146,3.716373-2.824572,4.041893c-0.004871,0.007824-0.011698,0.016598-0.018517,0.026325
		c-0.346983,0.186169-0.590649,0.632572-0.590649,1.154972c0,0.148155,0.020472,0.289471,0.056538,0.421062
		c0.043858,0.161808,0.112083,0.307018,0.199799,0.429832c-0.037031,0.145214-0.066277,0.293369-0.089663,0.444439
		c-0.048737,0.31773-0.069201,0.647179-0.055555,0.985371c0,0.010738,0.000973,0.021446,0.001947,0.032185
		c0.023386,0.506813,0.120859,0.988285,0.2768,1.431774c0.040937,0.09161,0.08675,0.179325,0.135479,0.261211l0.692009-0.578941
		l1.213457-1.015621l0.042883-0.036049c-0.082844-0.222221-0.183231-0.453217-0.301168-0.687153
		c-0.102343-0.199795-0.293375-0.500954-0.405458-0.676418c0.173491-0.227066,0.377193-0.458061,0.404484-0.852829
		c0.003897-0.056511,0.005846-0.11401,0.005846-0.172485c0-0.054581-0.002922-0.107227-0.005846-0.160828
		c-0.025341-0.390842-0.140354-0.73296-0.308968-0.96199c0.235865-0.412289,0.791422-1.233913,0.969791-1.470768
		c0.305065-0.406425,0.831383-0.96101,1.100389-1.202744c0.143272-0.127663,0.743668-0.275818,0.850883-0.306038
		c-0.047764,0.006813,0.023384-0.006813,0,0c0.141319-0.020462,0.588692-0.08968,0.588692-0.08968l0.67057-0.122784
		l0.041908-0.007824l-0.166664-0.537983c-0.00098-0.010738-0.00293-0.021446-0.004879-0.032185
		c-0.023392-0.211483-0.022411-0.415203,0-0.602322c0.018524-0.151073,0.051659-0.291435,0.097466-0.415234
		c0.016575-0.045803,0.035091-0.089649,0.055553-0.130604c0.026318-0.054581,0.055565-0.104286,0.087727-0.150093
		c0.008774-0.011688,0.016567-0.023376,0.025341-0.034115c0.235867-0.324539,0.779724-1.038971,0.870369-1.147179
		c-0.01754-0.021446-0.035088-0.043842-0.052631-0.065289c-0.008766-0.010738-0.01754-0.021446-0.025341-0.032154
		c-0.355751-0.448368-0.661797-0.948368-0.911308-1.4893c-0.119884-0.259251-0.228069-0.527275-0.320663-0.803127
		c-0.114033-0.339172-0.204681-0.692001-0.27388-1.05262c-0.033134-0.166687-0.061401-0.335278-0.08382-0.505863
		c-0.002922-0.016567-0.005852-0.033134-0.007801-0.050682c-0.114029-0.076981-0.223194-0.158867-0.329433-0.245598
		c-0.298244-0.245632-0.562382-0.532188-0.787525-0.847954c-0.140354-0.196907-0.264137-0.405476-0.371349-0.624779
		c-0.022411-0.044823-0.04483-0.089649-0.065296-0.135456c0.025333,0.039948,0.053608,0.078941,0.080898,0.118889
		c0.359646,0.524361,0.827488,0.96883,1.375244,1.295334c0.01852,0.010708,0.037037,0.021446,0.055553,0.032154
		c0.047764,0.027306,0.096489,0.051666,0.144253,0.077991c0.108189,0.057495,0.21735,0.112076,0.330406,0.159843
		c0.024368,0.158867,0.053608,0.315769,0.08675,0.471718c0.04678,0.224182,0.104282,0.445419,0.168613,0.661812
		c0.05653,0.190063,0.118912,0.376205,0.18811,0.55946c0.115013,0.303123,0.247562,0.595512,0.39571,0.876209
		c0.171543,0.32457,0.364525,0.633522,0.576031,0.922993c0.051659,0.070198,0.105263,0.138401,0.158871,0.206635
		c0.427872,0.538998,0.925926,1.001968,1.478561,1.372345c0.300194,0.200775,0.615982,0.375225,0.946396,0.516571
		c0.091614,0.038963,0.184208,0.075996,0.278751,0.110111c0.072128,0.312881,0.484406,0.762199,0.777782,1.023415
		c0.129627,0.111095,0.372318,0.287506,0.476608,0.450298c0.254387,0.403511,0.414234,0.865501,0.518517,1.242687
		c0.201756,0.716362,0.454197,2.050694,0.454197,2.181301c0,0.130577,0.052631,0.651073,0.052631,0.781681
		c0,0.129623-0.364521,1.380104-0.364521,1.509731c0,0.012672-0.005856,0.026325-0.013645,0.040928
		c-0.498055,0.368443-0.948349,0.936649-1.250496,1.641354c-0.167641,0.392773-0.27388,0.789471-0.321636,1.170555h2.123783
		c0.050686-0.335278,0.137436-0.680309,0.261215-1.027279c0.216373-0.603333,0.517544-1.131592,0.862579-1.55069
		c0.083817-0.102352,0.171535-0.197861,0.260231-0.28754c0.031189-0.059456,0.049702-0.126709,0.054581-0.207584
		c0.000977-0.012672,0.001949-0.025341,0.001949-0.039974c0-0.357708-0.202732-0.946407-0.333336-1.310925
		c-0.051659-0.143276-0.135479-0.277782-0.135479-0.407406c0-0.130608-0.208576-2.705662-0.196877-2.803135
		c0.036057-0.046787,0.432747-1.355747,0.822613-1.884987c-0.150105-0.199795-0.284607-0.342121-0.406441-0.46199
		c-0.304089-0.301159-0.522411-0.459072-0.675434-1.003899c-0.026314-0.111126-0.115986-0.122814-0.115986-0.253422
		c0-0.063354,0.009747-0.097473,0.025341-0.121834c0.461014,0.352829,1.038017,0.562378,1.66375,0.562378h0.000973
		c-0.715401-0.592598-1.076031-1.576004-0.883041-2.572113C41.951496,40.14212,41.959297,40.103127,41.969044,40.064129"/>
	<path style="fill:#FFFFFF;" d="M148.024048,16.128666c0,1.347984-0.037033,2.495132-0.109161,3.440556
		c-0.07309,0.945423-0.219299,1.713482-0.437622,2.303133c-0.219284,0.589682-0.53215,1.020468-0.938599,1.292421
		c-0.406433,0.271921-0.943481,0.407408-1.610138,0.407408c-0.667633,0-1.203705-0.135487-1.610138-0.407408
		c-0.406433-0.271954-0.719299-0.70274-0.937622-1.292421c-0.219299-0.589651-0.365494-1.35771-0.437622-2.303133
		c-0.074081-0.945423-0.110153-2.092571-0.110153-3.440556c0-1.348934,0.036072-2.491235,0.110153-3.426903
		c0.072128-0.936648,0.218323-1.704677,0.437622-2.304084c0.218323-0.598456,0.531189-1.034121,0.937622-1.306073
		c0.406433-0.270941,0.942505-0.407408,1.610138-0.407408c0.666656,0,1.203705,0.136467,1.610138,0.407408
		c0.406448,0.271953,0.719315,0.707617,0.938599,1.306073c0.218323,0.599407,0.364532,1.367435,0.437622,2.304084
		C147.987015,13.637431,148.024048,14.779732,148.024048,16.128666 M152.814529,16.174473
		c0-1.665682-0.080902-3.20272-0.243668-4.612095c-0.161789-1.408364-0.518539-2.616965-1.07019-3.624763
		c-0.552628-1.007797-1.346985-1.794356-2.385971-2.360628c-1.03801-0.565291-2.433731-0.847951-4.186172-0.847951
		s-3.148163,0.28266-4.186172,0.847951c-1.03801,0.566272-1.833344,1.352831-2.384995,2.360628
		s-0.908401,2.216398-1.071152,3.624763c-0.161804,1.409375-0.243668,2.946413-0.243668,4.612095
		c0,1.687157,0.081863,3.229073,0.243668,4.62771c0.16275,1.398638,0.519501,2.602362,1.071152,3.609177
		c0.551651,1.008778,1.346985,1.779722,2.384995,2.313841c1.03801,0.535099,2.433731,0.802145,4.186172,0.802145
		s3.148163-0.267046,4.186172-0.802145c1.038986-0.534119,1.833344-1.305063,2.385971-2.313841
		c0.551651-1.006815,0.908401-2.210539,1.07019-3.609177C152.733627,19.403545,152.814529,17.861629,152.814529,16.174473"/>
	<polygon style="fill:#FFFFFF;" points="56.504955,9.140446 47.59264,9.140446 47.59264,14.323722 54.441589,14.323722 
		54.441589,17.964069 47.59264,17.964069 47.59264,23.887087 56.504955,23.887087 56.504955,27.527464 43.150131,27.527464 
		43.150131,5.500098 56.504955,5.500098 	"/>
	<polygon style="fill:#FFFFFF;" points="87.222023,9.878641 82.672279,9.878641 82.672279,27.527821 78.064087,27.527821 
		78.064087,9.878641 73.661537,9.878641 73.661537,5.794835 87.222023,5.794835 	"/>
	<path style="fill:#FFFFFF;" d="M133.830643,1.175006l-1.494156-0.9376c-0.315796,0.778736-1.581879,0.891794-1.918137,0.880105
		c-0.361603-0.012671-0.721268-0.081856-1.078949-0.207586l-1.71347-0.65497c-0.35672-0.14426-0.873291-0.229061-1.54776-0.25244
		c-0.916183-0.032183-1.667641,0.244617-2.254395,0.827487c-0.406425,0.404463-0.725136,0.940545-0.96199,1.603308l1.602356,0.68519
		c0.215393-0.672519,1.273872-0.635488,1.852821-0.615023c0.288498,0.010738,0.600403,0.073112,0.933731,0.188133
		c0.333328,0.115973,0.685188,0.236824,1.05555,0.362554c0.368423,0.126711,0.744644,0.248544,1.126709,0.365498
		c0.381104,0.116955,0.765121,0.182273,1.151077,0.195926c0.915207,0.032154,1.686172-0.270971,2.311905-0.910355
		C133.312103,2.279323,133.622055,1.767602,133.830643,1.175006"/>
	<path style="fill:#FFFFFF;" d="M130.65625,19.530525h-4.915215l2.423012-9.903551h0.070175L130.65625,19.530525z
		 M137.33757,27.527613L131.1241,5.500277h-5.850899l-6.21347,22.027336h4.931786l1.021454-4.274855h6.245621l1.148163,4.274855
		H137.33757z"/>
	<path style="fill:#FFFFFF;" d="M96.45974,19.530525h-4.915215l2.423012-9.903551h0.070168L96.45974,19.530525z
		 M103.14106,27.527613l-6.21347-22.027336h-5.850899l-6.21347,22.027336h4.931786l1.021454-4.274855h6.245621l1.148163,4.274855
		H103.14106z"/>
	<path style="fill:#FFFFFF;" d="M115.474037,16.410137c0,7.401606-4.822624,7.401606-4.822624,7.401606h-1.024376V9.300976h1.024376
		C110.651413,9.300976,115.474037,9.00856,115.474037,16.410137 M120.091995,16.325336
		c0-11.202753-8.844086-10.760247-8.844086-10.760247h-6.338234v21.963028h6.338234
		C111.24791,27.528118,120.091995,27.528118,120.091995,16.325336"/>
	<path style="fill:#FFFFFF;" d="M70.799835,16.332563l0.007797-0.015585c-0.137436-0.123766-1.125732-0.875227-1.378174-1.020469
		c-1.093582-0.648159-2.42009-1.111099-4.664726-1.927878c-3.138416-1.141319-2.747574-4.576045,0.347946-4.42887
		c2.500977,0.118917,3.29631,2.772915,3.29631,2.772915l3.832359-1.620858c0,0-1.675438-4.984434-7.108208-4.977593
		c-4.00098,0.004878-6.801186,2.056522-7.295345,5.028278c-0.521431,3.308015,1.007797,5.355762,2.670582,6.611121
		c0.496105,0.419128,1.539967,0.955179,1.539967,0.953217c0.936649,0.410353,2.039967,0.69105,3.747578,1.410357
		c1.648148,0.693935,2.264137,2.056522,1.884987,3.140347c-0.504868,1.422047-1.881088,1.695902-2.547768,1.699829
		c-2.821632,0.017519-3.705666-3.225178-3.705666-3.225178l-4.127693,1.031206
		c0.58968,3.538027,3.538029,6.150114,7.833359,6.150114c6.169617,0,7.49614-4.970781,7.642326-6.726143
		c0-0.001963,0-0.003897,0.000984-0.006811C72.776451,21.178598,73.07177,18.373529,70.799835,16.332563"/>
	<path style="fill:#FFFFFF;" d="M153.330414,34.486652c-0.377213-1.05851-0.864532-1.945427-1.463943-2.6628
		c-0.599426-0.717344-1.293381-1.299202-2.080917-1.746586c-0.788483-0.446404-1.657883-0.769991-2.610138-0.969784
		c-0.95224-0.199793-1.957108-0.299229-3.015594-0.299229c-1.128662,0-2.198853,0.140364-3.209579,0.422995
		c-1.010712,0.281679-1.962952,0.799229-2.856735,1.551672c-0.870361,0.729063-1.522415,1.576031-1.957108,2.539986
		c-0.435669,0.963924-0.65303,2.009735-0.65303,3.138412c0,1.316753,0.240738,2.404472,0.723206,3.26218
		c0.481491,0.858688,1.122803,1.564342,1.922028,2.116962c0.799225,0.55265,1.710526,0.981472,2.733932,1.28656
		c1.02243,0.306042,2.074081,0.564339,3.15596,0.776802c0.376221,0.070168,0.805069,0.157883,1.287521,0.26413
		c0.481491,0.106247,0.940552,0.259254,1.375244,0.458092c0.435684,0.200775,0.806046,0.459076,1.111115,0.775822
		c0.306061,0.31776,0.459076,0.723206,0.459076,1.217377c0,0.494141-0.117935,0.911308-0.352829,1.252415
		c-0.23587,0.341137-0.540939,0.611126-0.91716,0.810921c-0.376221,0.199821-0.788498,0.341137-1.234894,0.423023
		c-0.446396,0.082836-0.8694,0.123764-1.269012,0.123764c-1.269989,0-2.340164-0.252438-3.209564-0.75827
		c-0.870361-0.505863-1.481476-1.393761-1.83432-2.662773l-5.220276,1.198818
		c0.282639,1.176414,0.734894,2.187157,1.358673,3.033146c0.622803,0.847,1.3694,1.539982,2.2388,2.080914
		c0.870377,0.540928,1.83432,0.940544,2.892792,1.198845c1.05751,0.259251,2.151077,0.387894,3.279755,0.387894
		c1.222214,0,2.451263-0.140331,3.686157-0.422993c1.233917-0.281677,2.345032-0.799229,3.332367-1.551674
		c0.940552-0.72805,1.675446-1.622787,2.204697-2.680317C153.73587,47.994473,154,46.865826,154,45.666981
		c0-1.198818-0.281677-2.286537-0.846008-3.26218s-1.340149-1.793373-2.328476-2.45129
		c-0.422989-0.282631-0.898636-0.52924-1.427872-0.740723c-0.529236-0.21151-1.07019-0.393784-1.622803-0.546787
		c-0.552643-0.153038-1.111115-0.29435-1.675461-0.423027c-0.564316-0.129623-1.09259-0.241699-1.586731-0.335278
		c-0.352829-0.071148-0.72905-0.153004-1.128662-0.247562c-0.400589-0.093575-0.775833-0.229031-1.128662-0.405445
		c-0.352829-0.176411-0.647186-0.405472-0.88208-0.687153c-0.234879-0.282658-0.352814-0.647175-0.352814-1.093548
		c0-0.469814,0.106247-0.851879,0.317734-1.146229c0.211502-0.29435,0.476608-0.52338,0.793381-0.688103
		c0.317734-0.163746,0.676407-0.275822,1.076019-0.335281c0.399612-0.058475,0.787537-0.087715,1.163757-0.087715
		c1.081863,0,1.958099,0.217342,2.627686,0.652058c0.670563,0.435665,1.18129,1.170555,1.534119,2.204678L153.330414,34.486652z
		 M128.306946,52.703056c1.375244-0.669571,2.533142-1.697834,3.473694-3.085762
		c0.775818-1.152058,1.351837-2.492218,1.728073-4.020481c0.376221-1.528263,0.564316-2.986359,0.564316-4.37429
		c0-1.480492-0.217346-3.002926-0.652039-4.567268c-0.435684-1.563362-1.088699-2.94445-1.958099-4.144249
		c-0.987335-1.34016-2.110138-2.292423-3.368423-2.856733c-1.257324-0.564339-2.697868-0.846018-4.31971-0.846018
		c-1.787529,0-3.333344,0.346998-4.63842,1.03998c-1.305077,0.693935-2.381088,1.616962-3.227112,2.769018
		c-0.84697,1.152027-1.475632,2.47464-1.886932,3.967834c-0.412285,1.493195-0.616974,3.039005-0.616974,4.637436
		c0,1.529243,0.198845,3.039989,0.599426,4.532173c0.399612,1.494175,1.045807,2.875263,1.939583,4.144276
		c0.963936,1.34016,2.098442,2.310925,3.403519,2.910332c1.305061,0.599407,2.780708,0.898636,4.42691,0.898636
		C125.419991,53.707939,126.930717,53.373642,128.306946,52.703056 M125.925835,33.992481
		c0.540947,0.376236,0.987335,0.975643,1.340164,1.799232c0.352821,0.822609,0.587715,1.71637,0.70565,2.680321
		c0.116959,0.963924,0.176422,1.89278,0.176422,2.786568c0,0.799202-0.053604,1.65691-0.158875,2.574074
		c-0.106247,0.917168-0.300194,1.752445-0.581871,2.503906c-0.32943,0.894741-0.770958,1.576035-1.322624,2.045815
		c-0.55262,0.470764-1.322609,0.705654-2.309944,0.705654c-0.988297,0-1.775826-0.269989-2.363556-0.810917
		c-0.587723-0.540932-1.035088-1.204678-1.340164-1.993198c-0.306038-0.78751-0.505844-1.640339-0.599403-2.556522
		c-0.094543-0.917168-0.141335-1.751465-0.141335-2.50489c0-0.751461,0.058479-1.598431,0.176414-2.538975
		c0.116959-0.940575,0.317741-1.774872,0.599426-2.503906c0.32943-0.893787,0.775818-1.575081,1.340157-2.045815
		c0.564323-0.470764,1.340164-0.705685,2.328461-0.705685C124.667549,33.428143,125.384903,33.616276,125.925835,33.992481
		 M92.490051,29.160101v24.195993h7.970795c1.716377,0,3.309944-0.230011,4.779732-0.688107
		c1.468819-0.458092,2.8041-1.34602,4.002945-2.662769c1.080894-1.222225,1.875252-2.592606,2.381096-4.109177
		c0.504883-1.516575,0.758286-3.085796,0.758286-4.708588c0-1.763184-0.29435-3.444481-0.882065-5.043892
		c-0.587723-1.598431-1.53997-3.020477-2.856735-4.267061c-0.658867-0.635489-1.340164-1.128679-2.045815-1.481506
		c-0.705658-0.352827-1.440552-0.622786-2.204681-0.810919c-0.764145-0.188103-1.551674-0.30604-2.362587-0.352827
		c-0.81189-0.046759-1.652046-0.071148-2.522423-0.071148H92.490051z M98.133354,33.604557h1.939583
		c1.010712,0,1.892776,0.112106,2.645218,0.335308s1.458099,0.75827,2.116966,1.60429
		c0.586746,0.753391,1.02243,1.611099,1.305077,2.575054c0.281677,0.963924,0.423004,1.927879,0.423004,2.89183
		c0,0.893757-0.106247,1.793377-0.317741,2.698822c-0.211494,0.905476-0.552635,1.745636-1.022415,2.521458
		c-0.658882,1.057499-1.393776,1.751465-2.204697,2.08091c-0.810921,0.329422-1.805061,0.494144-2.980515,0.494144h-1.90448
		V33.604557z M83.743439,29.160101h-6.56044l-7.7593,24.195993h4.972733l1.516571-4.973698h7.830437l1.481483,4.973698h6.101379
		L83.743439,29.160101z M77.28923,43.938923l2.574089-8.500034l2.575058,8.500034H77.28923z M50.166336,29.160101v24.195993
		h7.970779c1.716381,0,3.309963-0.230011,4.779747-0.688107c1.468819-0.458092,2.8041-1.34602,4.00293-2.662769
		c1.08091-1.222225,1.874283-2.592606,2.380127-4.109177c0.505844-1.516575,0.758286-3.085796,0.758286-4.708588
		c0-1.763184-0.293365-3.444481-0.881081-5.043892c-0.587723-1.598431-1.540955-3.020477-2.856735-4.267061
		c-0.658882-0.635489-1.340164-1.128679-2.045815-1.481506c-0.705658-0.352827-1.440563-0.622786-2.204697-0.810919
		c-0.76413-0.188103-1.551655-0.30604-2.362576-0.352827c-0.811901-0.046759-1.652058-0.071148-2.522423-0.071148H50.166336z
		 M55.809635,33.604557h1.939568c1.010727,0,1.892796,0.112106,2.645237,0.335308s1.458096,0.75827,2.116962,1.60429
		c0.586754,0.753391,1.022419,1.611099,1.304096,2.575054c0.282661,0.963924,0.423973,1.927879,0.423973,2.89183
		c0,0.893757-0.106232,1.793377-0.317726,2.698822c-0.211514,0.905476-0.552635,1.745636-1.02243,2.521458
		c-0.658867,1.057499-1.393761,1.751465-2.204681,2.08091c-0.810917,0.329422-1.805077,0.494144-2.980515,0.494144h-1.904484
		V33.604557z"/>
</g>
</svg>
